# xmcd CD database file
#
# Track frame offsets:
#	150
#	31335
#	77515
#	106492
#	134595
#
# Disc length: 2825 seconds
#
# Revision: 0
# Processed by: cddbd v1.5PL3 Copyright (c) Steve Scherf et al.
# Submitted via: CDex 1.51
#
DISCID=390b0705
DTITLE=Taylor's Free Universe - 9 Eleven [CD 2)
DYEAR=2004
DGENRE=Jazz
TTITLE0=Boom!
TTITLE1=Texas Flangers
TTITLE2=Sub-Language
TTITLE3=Peacock
TTITLE4=In Spirit Of...
EXTD=YEAR: 2004
EXTT0=
EXTT1=
EXTT2=
EXTT3=
EXTT4=
PLAYORDER=
